<?xml version="1.0" standalone="no"?>
<!DOCTYPE svg PUBLIC "-//W3C//DTD SVG 20010904//EN"
 "http://www.w3.org/TR/2001/REC-SVG-20010904/DTD/svg10.dtd">
<svg version="1.0" xmlns="http://www.w3.org/2000/svg"
 width="512.000000pt" height="512.000000pt" viewBox="0 0 512.000000 512.000000"
 preserveAspectRatio="xMidYMid meet">
<metadata>
Created by potrace 1.16, written by Peter Selinger 2001-2019
</metadata>
<g transform="translate(0.000000,512.000000) scale(0.100000,-0.100000)"
fill="#000000" stroke="none">
<path d="M203 4958 c-174 -172 -196 -198 -191 -231 3 -19 32 5 192 163 103
102 192 193 197 203 8 14 5 17 -17 17 -21 0 -60 -33 -181 -152z"/>
<path d="M303 4858 c-140 -139 -264 -265 -275 -281 -10 -15 -18 -37 -16 -50 3
-18 49 23 292 263 158 157 292 293 297 303 8 14 5 17 -17 17 -22 0 -75 -47
-281 -252z"/>
<path d="M402 4758 c-194 -194 -362 -365 -373 -381 -11 -15 -19 -37 -17 -50 4
-18 67 40 392 363 213 212 392 393 397 403 8 14 5 17 -18 17 -22 0 -89 -62
-381 -352z"/>
<path d="M502 4658 c-249 -249 -462 -465 -473 -481 -11 -15 -19 -37 -17 -50 4
-18 84 57 492 463 268 267 492 493 497 503 8 14 5 17 -18 17 -22 0 -104 -76
-481 -452z"/>
<path d="M602 4558 c-304 -304 -562 -565 -573 -581 -11 -15 -19 -37 -17 -50 4
-18 101 75 592 563 323 322 592 593 597 603 8 14 5 17 -18 17 -23 0 -118 -91
-581 -552z"/>
<path d="M702 4458 c-359 -359 -662 -665 -673 -681 -11 -15 -19 -37 -17 -50 4
-18 118 92 692 663 378 377 692 693 697 703 8 14 5 17 -18 17 -23 0 -133 -106
-681 -652z"/>
<path d="M802 4358 c-414 -414 -762 -765 -773 -781 -11 -15 -19 -37 -17 -50 4
-18 136 109 792 763 433 432 792 793 797 803 8 14 5 17 -18 17 -23 0 -148
-120 -781 -752z"/>
<path d="M883 4237 c-727 -727 -873 -877 -873 -899 0 -20 4 -26 15 -22 12 5
15 -5 15 -58 0 -41 -5 -71 -15 -84 -8 -10 -15 -30 -15 -43 0 -22 1 -22 23 -8
22 14 24 13 45 -25 l23 -39 -45 -51 c-28 -30 -46 -60 -46 -74 0 -13 3 -24 6
-24 3 0 32 25 64 56 l59 56 33 -24 c18 -12 35 -24 37 -25 2 -2 -42 -50 -97
-107 -76 -78 -102 -111 -102 -131 0 -37 16 -26 145 104 105 106 112 111 151
111 80 0 69 -19 -121 -210 -138 -140 -175 -183 -175 -204 0 -14 3 -26 7 -26 4
0 86 79 184 176 97 97 179 172 182 167 2 -4 10 -25 17 -46 l12 -39 -201 -202
c-160 -161 -201 -208 -201 -230 0 -14 3 -26 7 -26 4 0 98 91 209 201 l202 201
14 -48 15 -49 -224 -226 c-180 -182 -223 -231 -223 -253 0 -22 3 -25 17 -17
10 5 112 105 228 220 115 116 212 211 215 211 3 0 11 -21 18 -47 l13 -46 -246
-247 c-197 -199 -245 -252 -245 -273 0 -15 3 -27 7 -27 4 0 118 111 254 246
l247 246 12 -52 12 -52 -266 -267 c-215 -216 -266 -273 -266 -294 0 -15 3 -27
7 -27 4 0 127 120 274 266 l267 266 12 -52 12 -52 -286 -287 c-232 -233 -286
-293 -286 -314 0 -15 3 -27 7 -27 4 0 136 129 294 286 l287 287 11 -39 c6 -21
11 -46 11 -54 0 -8 -137 -152 -305 -320 -248 -249 -305 -311 -305 -333 0 -15
3 -27 7 -27 4 0 145 138 314 306 l307 306 12 -52 12 -52 -326 -327 c-266 -267
-326 -332 -326 -354 0 -15 3 -27 7 -27 4 0 154 146 333 325 l326 326 12 -52
13 -53 -346 -346 c-282 -283 -345 -351 -345 -373 0 -15 3 -27 7 -27 4 0 161
154 350 342 188 188 344 340 346 337 2 -2 8 -24 14 -49 l10 -45 -364 -366
c-297 -299 -363 -370 -363 -392 0 -15 3 -27 7 -27 4 0 170 163 369 361 l362
361 11 -53 12 -53 -381 -381 c-312 -313 -380 -386 -380 -408 0 -15 3 -27 7
-27 4 0 177 170 385 377 335 334 377 374 382 352 2 -13 8 -37 11 -53 6 -28
-16 -51 -389 -426 -328 -328 -396 -401 -396 -423 0 -23 3 -26 18 -18 9 5 194
187 411 405 l395 395 46 -6 c28 -3 56 -1 71 7 13 7 -193 -206 -458 -472 -399
-400 -483 -489 -483 -511 0 -15 3 -27 7 -27 4 0 248 240 543 534 l535 535 80
25 c44 14 84 26 90 26 5 0 -264 -273 -598 -608 -334 -334 -607 -611 -607 -615
0 -4 12 -7 27 -7 22 0 88 61 361 332 197 196 331 323 326 308 -4 -14 -8 -46
-9 -72 l0 -47 -252 -254 c-139 -139 -253 -256 -253 -260 0 -4 12 -7 27 -7 21
0 73 47 265 237 l238 237 29 -34 30 -35 -195 -196 c-107 -107 -194 -198 -194
-202 0 -4 12 -7 26 -7 21 0 66 39 215 186 l188 186 35 -22 c20 -12 36 -25 36
-28 0 -4 -63 -70 -141 -147 -77 -77 -145 -148 -150 -157 -8 -15 -5 -18 17 -18
21 0 59 32 178 149 l151 148 44 -19 43 -20 -121 -122 c-66 -68 -121 -126 -121
-129 0 -4 12 -7 26 -7 19 0 55 29 147 119 l122 118 48 -16 47 -16 -86 -85
c-104 -103 -115 -120 -79 -120 19 0 52 25 123 93 105 101 100 99 181 71 9 -3
-9 -29 -58 -78 -39 -41 -71 -77 -71 -80 0 -3 11 -6 25 -6 18 0 49 22 103 73
l77 73 45 -10 c25 -5 47 -11 49 -12 2 -2 -19 -28 -47 -58 -29 -30 -52 -57 -52
-60 0 -3 11 -6 24 -6 16 0 46 20 85 55 l60 56 50 -7 c28 -4 51 -10 51 -14 0
-3 -12 -17 -26 -31 -72 -67 -27 -85 49 -19 46 40 66 46 126 34 l31 -6 -27 -32
-26 -31 23 -3 c13 -2 37 8 60 27 39 31 62 36 118 25 30 -6 31 -7 15 -30 -15
-23 -14 -24 7 -24 13 0 37 10 54 23 26 19 41 22 88 19 53 -4 57 -5 48 -23 -9
-16 -7 -19 11 -19 11 0 33 8 47 18 34 23 147 20 138 -4 -7 -19 33 -18 58 1 13
10 43 15 84 15 53 0 63 -3 58 -15 -7 -19 27 -20 57 -1 12 7 53 17 90 20 66 6
68 6 57 -14 -9 -17 -8 -20 11 -20 11 0 33 8 47 19 16 11 55 21 95 26 l69 7
-17 -26 c-17 -25 -17 -26 7 -26 13 0 39 13 58 29 28 22 49 30 105 36 l70 7
-21 -24 c-35 -39 -37 -48 -11 -48 14 0 44 17 71 42 42 36 57 43 122 53 l73 11
-44 -47 c-25 -27 -45 -51 -45 -54 0 -3 11 -5 25 -5 16 0 47 21 92 63 59 55 76
65 128 76 33 7 69 15 80 18 12 3 -9 -25 -52 -70 -40 -41 -73 -78 -73 -81 0 -3
11 -6 25 -6 19 0 54 27 130 100 57 55 112 100 122 100 10 1 51 14 92 30 l74
29 -121 -123 c-67 -67 -122 -126 -122 -129 0 -4 12 -7 26 -7 21 0 63 36 193
163 91 90 186 178 211 194 51 35 130 116 130 135 0 6 158 170 350 363 285 287
350 356 350 378 0 15 -3 27 -7 27 -4 0 -156 -148 -338 -330 l-330 -330 -19 46
-19 46 357 357 c291 292 356 362 356 384 0 15 -3 27 -7 27 -4 0 -172 -164
-373 -365 l-366 -365 -34 29 -35 30 408 408 c337 339 407 414 407 436 0 23 -3
26 -18 18 -9 -5 -201 -195 -427 -420 -225 -226 -413 -411 -417 -411 -4 0 -23
10 -43 21 l-37 22 471 471 c389 390 471 477 471 499 0 15 -3 27 -7 27 -4 0
-159 -152 -345 -337 -186 -186 -338 -331 -338 -322 0 8 5 42 11 75 l10 59 335
336 c273 274 334 340 334 362 0 15 -3 27 -7 27 -4 0 -150 -143 -325 -317 -175
-175 -318 -311 -318 -302 0 9 5 42 11 75 l12 59 313 316 c256 257 314 320 314
342 0 15 -3 27 -7 27 -4 0 -142 -134 -306 -297 -165 -164 -297 -289 -294 -278
3 11 11 47 17 80 l12 60 289 291 c234 236 289 295 289 317 0 15 -3 27 -7 27
-4 0 -130 -122 -279 -271 l-272 -272 19 84 20 84 259 261 c210 210 260 266
260 287 0 15 -3 27 -7 27 -4 0 -116 -109 -249 -241 l-242 -241 19 83 20 84
229 231 c185 185 230 236 230 257 0 15 -3 27 -7 27 -4 0 -101 -93 -215 -207
-114 -114 -208 -203 -208 -198 0 6 9 43 20 84 l19 74 195 197 c158 159 196
202 196 224 0 29 -8 28 -47 -7 l-22 -19 15 47 c8 27 14 62 14 79 0 17 9 42 20
56 11 14 20 36 20 49 0 22 -1 23 -22 9 -22 -15 -23 -14 -40 30 l-17 45 39 45
c42 47 57 102 23 83 -10 -5 -36 -28 -58 -50 l-39 -41 -33 32 -33 31 90 93 c65
68 90 100 90 119 0 14 -3 25 -6 25 -4 0 -55 -47 -114 -105 l-107 -105 -51 12
-52 11 165 167 c129 131 165 173 165 194 0 14 -3 26 -7 26 -4 0 -97 -90 -207
-199 -149 -148 -209 -201 -232 -206 -81 -16 -169 -102 -193 -188 -11 -38 -44
-75 -237 -268 l-224 -224 0 65 0 65 550 550 c456 457 550 555 550 578 0 15 -3
27 -7 27 -4 0 -252 -244 -550 -542 l-543 -543 0 65 0 65 550 550 c456 457 550
555 550 578 0 15 -3 27 -7 27 -4 0 -252 -244 -550 -542 l-543 -543 0 65 0 65
550 550 c456 457 550 555 550 578 0 15 -3 27 -7 27 -4 0 -252 -244 -550 -542
l-543 -543 0 65 0 65 550 550 c456 457 550 555 550 578 0 15 -3 27 -7 27 -4 0
-209 -201 -455 -447 -374 -374 -445 -440 -433 -407 8 21 14 57 15 79 0 39 10
49 440 480 363 364 440 446 440 468 0 15 -3 27 -7 27 -4 0 -204 -197 -445
-437 -241 -241 -438 -432 -438 -424 0 7 -7 29 -16 48 l-17 35 462 462 c380
381 461 467 461 489 0 15 -3 27 -7 27 -4 0 -219 -211 -478 -470 l-470 -469
-34 31 -34 30 457 457 c251 251 456 460 456 464 0 4 -12 7 -27 7 -22 0 -107
-80 -483 -454 -389 -388 -458 -453 -475 -446 -11 5 -36 9 -55 9 -34 1 -23 13
403 439 240 241 437 441 437 445 0 4 -12 7 -27 7 -22 0 -106 -79 -478 -449
-350 -349 -458 -451 -487 -461 -58 -18 -137 -96 -169 -165 -24 -52 -72 -104
-373 -405 -190 -189 -347 -342 -349 -340 -2 3 -9 25 -15 50 l-11 45 854 855
c470 470 855 859 855 863 0 4 -12 7 -27 7 -23 0 -164 -137 -860 -832 -458
-458 -834 -830 -836 -828 -2 3 -8 26 -14 52 l-10 46 764 764 c420 419 769 771
774 781 8 14 5 17 -18 17 -23 0 -147 -120 -779 -751 -413 -413 -754 -747 -757
-742 -4 6 -9 29 -13 52 l-7 43 692 692 c380 380 691 695 691 699 0 4 -12 7
-27 7 -23 0 -140 -112 -699 -671 l-672 -672 -11 39 c-16 57 -14 67 19 99 23
22 33 26 42 17 19 -19 76 -14 98 8 22 22 25 54 11 93 -9 22 29 62 505 538 284
283 520 522 525 532 8 14 5 17 -18 17 -23 0 -111 -84 -533 -505 l-506 -506
-16 50 -15 49 439 438 c242 242 444 447 449 457 8 14 5 17 -18 17 -22 0 -100
-73 -459 -432 l-433 -431 -6 35 c-13 70 -8 77 138 183 76 55 142 107 148 115
5 8 8 30 7 47 -2 30 14 50 215 251 119 120 217 221 217 225 0 4 -12 7 -27 7
-21 0 -69 -43 -237 -208 l-211 -207 -58 5 -57 5 185 185 c103 102 191 193 196
203 8 14 5 17 -17 17 -22 0 -68 -40 -234 -205 l-206 -205 -64 0 -64 0 197 198
c108 109 197 201 197 205 0 4 -12 7 -26 7 -22 0 -68 -41 -229 -200 -213 -212
-210 -210 -233 -144 -10 31 -9 33 130 170 160 159 171 174 132 174 -20 0 -56
-30 -158 -130 l-132 -130 -16 49 -16 49 65 64 c82 80 93 98 59 98 -16 0 -45
-19 -82 -53 l-57 -54 -23 45 c-13 25 -21 49 -18 54 8 13 -31 9 -57 -5 -13 -7
-109 -99 -213 -205 l-189 -192 -66 0 -65 0 197 198 c108 109 197 201 197 205
0 4 -12 7 -27 7 -22 0 -113 -86 -524 -496 l-497 -496 -51 13 -52 13 476 476
c261 261 475 479 475 483 0 4 -12 7 -27 7 -22 0 -111 -84 -513 -485 -378 -378
-491 -485 -510 -485 -39 0 -123 -44 -163 -84 -44 -44 -74 -100 -83 -154 -5
-35 -27 -60 -184 -217 l-177 -177 -43 22 -43 22 772 772 c424 424 771 775 771
779 0 4 -12 7 -27 7 -23 0 -155 -127 -798 -769 l-770 -770 -67 -3 -68 -3 765
765 c421 421 765 769 765 773 0 4 -12 7 -27 7 -23 0 -169 -141 -900 -873z
m1537 598 c-41 -120 -56 -135 -139 -135 l-66 0 115 115 c63 63 115 113 117
111 2 -1 -11 -42 -27 -91z m-443 -270 c16 -13 -4 -36 -245 -278 l-264 -264
-32 31 -32 31 270 273 c255 256 271 271 278 246 4 -14 15 -32 25 -39z m99 -72
l35 -26 -288 -289 c-158 -158 -290 -288 -293 -288 -3 0 -12 21 -19 46 l-14 46
269 269 c148 148 270 269 272 269 2 0 19 -12 38 -27z m-224 -485 c-207 -208
-378 -376 -379 -374 -2 2 7 25 21 52 13 27 27 67 31 89 6 36 38 71 317 351
l311 312 38 -27 38 -26 -377 -377z m372 228 l-28 -85 -337 -337 -337 -337 -22
43 -22 43 383 383 c211 211 385 381 387 379 2 -2 -9 -42 -24 -89z m-72 -236
c-3 -24 1 -47 9 -56 11 -13 -28 -56 -277 -305 -159 -159 -292 -289 -295 -289
-3 0 -14 18 -24 41 l-19 40 305 305 c167 167 304 304 304 304 0 0 -1 -18 -3
-40z m218 -50 c-8 -27 -95 -120 -362 -387 l-353 -353 -22 43 -22 42 312 313
c172 171 316 312 322 312 6 0 35 18 65 39 30 22 58 36 62 32 4 -4 3 -22 -2
-41z m933 -492 l-338 -338 -13 52 -13 52 338 338 338 338 13 -52 13 -52 -338
-338z m-982 278 l-19 -79 -290 -290 -290 -290 -22 43 -22 43 328 328 c181 181
329 327 331 326 1 -2 -6 -38 -16 -81z m-1535 -193 l-150 -152 -23 41 -24 42
157 157 158 158 16 -47 16 -47 -150 -152z m2914 132 c0 -13 -121 -142 -349
-369 l-348 -348 -13 52 -13 52 344 344 343 343 18 -27 c10 -15 18 -36 18 -47z
m-2856 -276 l-179 -179 -5 57 -5 58 154 156 154 157 30 -35 30 -34 -179 -180z
m1416 77 l-18 -79 -223 -223 c-122 -123 -225 -221 -228 -219 -3 2 -15 20 -25
40 l-20 36 264 264 c145 145 265 263 266 262 2 -1 -6 -38 -16 -81z m-1143 49
l28 -24 -246 -247 -247 -247 -16 31 c-9 17 -16 39 -16 49 0 20 437 463 457
463 6 0 25 -11 40 -25z m2467 -122 l-55 -118 -242 -242 c-157 -158 -244 -238
-249 -230 -4 6 -10 29 -14 51 l-6 39 308 308 c170 170 310 309 311 309 1 0
-23 -53 -53 -117z m-2631 -295 c-114 -114 -210 -208 -213 -208 -3 0 -16 16
-29 36 l-24 35 234 235 234 234 3 -62 3 -62 -208 -208z m1246 107 l-19 -79
-157 -158 c-87 -87 -161 -158 -164 -158 -3 0 -14 18 -24 41 l-19 40 199 199
c110 110 200 198 201 197 1 -1 -6 -38 -17 -82z m-1197 -258 l-178 -178 -26 38
-26 38 196 198 197 197 7 -57 8 -58 -178 -178z m3249 -151 l-231 -231 0 65 0
65 217 217 218 218 13 -52 13 -52 -230 -230z m-811 300 c-4 -13 -31 -68 -58
-122 -45 -87 -63 -112 -161 -209 -94 -93 -114 -108 -129 -99 -9 6 -21 23 -27
38 -9 25 1 36 185 221 107 107 196 195 197 195 1 0 -2 -11 -7 -24z m-2251
-121 c1 -39 -4 -46 -139 -180 -134 -134 -140 -139 -155 -120 -43 56 -49 46
121 216 170 170 172 171 173 84z m950 -30 c-18 -79 -19 -80 -111 -172 -50 -50
-96 -89 -101 -86 -5 3 -17 19 -28 37 l-19 31 137 137 c75 76 138 136 139 135
1 -1 -6 -38 -17 -82z m2324 -98 c-37 -63 -88 -123 -220 -257 -154 -157 -173
-173 -188 -160 -9 8 -21 25 -27 39 -8 23 8 41 234 268 218 219 243 241 246
217 2 -17 -13 -53 -45 -107z m-3364 -203 l-103 -103 -27 37 -28 37 127 128
127 127 3 -62 3 -62 -102 -102z m62 -137 l-58 -59 -31 16 c-17 9 -34 21 -38
27 -4 6 31 49 82 100 l89 90 7 -58 8 -58 -59 -58z m1128 -1272 l-145 -145 -51
0 c-28 0 -60 -3 -70 -6 -10 -4 47 59 126 139 133 134 148 146 185 150 111 10
114 20 -45 -138z m211 10 l-135 -134 -70 -7 -70 -6 140 141 140 141 65 0 65 0
-135 -135z m200 0 l-135 -135 -65 0 -65 0 135 135 135 135 65 0 65 0 -135
-135z m-625 -24 l-150 -149 -70 -7 -70 -6 149 150 c150 150 150 150 200 154
28 2 60 4 71 5 13 1 -33 -50 -130 -147z m820 19 l-130 -130 -65 0 -65 0 130
130 130 130 65 0 65 0 -130 -130z m288 112 c14 -6 -6 -31 -107 -131 l-124
-124 -57 8 -58 7 124 124 c118 118 125 124 164 123 22 0 48 -4 58 -7z m-1333
-156 l-155 -155 -78 -14 -79 -14 163 163 c150 150 166 163 203 167 111 10 115
21 -54 -147z m1515 138 c13 -5 -9 -33 -101 -125 -107 -107 -122 -119 -154
-119 -93 0 -92 3 36 131 114 114 120 119 161 119 23 0 49 -3 58 -6z m-1754
-178 l-163 -163 -81 -22 c-44 -12 -81 -20 -83 -18 -2 2 74 80 169 175 156 156
177 173 217 181 118 23 119 25 -59 -153z m1912 156 l37 -7 -118 -118 -119
-119 -58 7 -57 8 118 118 c122 123 125 124 197 111z m-2173 -217 c-107 -107
-200 -195 -207 -195 -6 0 -60 -24 -118 -54 l-107 -53 229 229 230 230 79 18
c43 10 81 19 84 19 3 1 -83 -87 -190 -194z m2369 179 c10 -10 -221 -232 -238
-228 -9 1 -34 6 -55 9 l-39 7 114 114 114 115 50 -6 c27 -3 52 -8 54 -11z
m124 -27 l47 -12 -112 -112 -113 -112 -53 11 -54 11 113 113 c63 63 116 114
119 114 3 0 26 -6 53 -13z m173 -48 l28 -10 -105 -105 -104 -105 -45 6 c-25 4
-49 9 -54 12 -4 3 41 55 100 115 115 115 112 113 180 87z m132 -46 l43 -16
-103 -104 c-109 -110 -106 -108 -174 -82 l-28 10 104 104 c58 58 107 105 109
105 3 0 25 -7 49 -17z m144 -56 l48 -13 -108 -106 -107 -106 -44 20 -44 20 99
99 c54 54 101 99 104 99 3 -1 26 -6 52 -13z"/>
<path d="M4596 550 c-284 -283 -522 -523 -527 -533 -8 -14 -5 -17 18 -17 23 0
108 81 511 483 266 265 492 494 503 510 11 15 19 37 17 50 -4 18 -89 -62 -522
-493z"/>
<path d="M4696 450 c-229 -228 -422 -423 -427 -432 -8 -15 -5 -18 18 -18 22 0
93 66 411 383 211 210 392 394 403 410 11 15 19 37 17 50 -4 18 -72 -45 -422
-393z"/>
<path d="M4796 350 c-174 -173 -322 -323 -327 -332 -8 -15 -5 -18 17 -18 23 0
80 52 312 282 156 156 293 295 303 311 11 15 19 37 17 50 -4 18 -54 -28 -322
-293z"/>
<path d="M4896 250 c-119 -118 -222 -223 -227 -232 -8 -15 -5 -18 17 -18 21 0
65 37 211 183 205 202 226 227 221 260 -3 19 -37 -11 -222 -193z"/>
<path d="M4996 150 c-136 -133 -149 -150 -111 -150 18 0 49 23 111 82 102 98
127 130 122 161 -3 19 -19 7 -122 -93z"/>
</g>
</svg>
